# xmcd CD database file
#
# Track frame offsets:
#	150
#	19185
#	38672
#	54712
#	79335
#	105657
#	135487
#	152447
#	185457
#	207837
#	237937
#	244795
#	265955
#	298447
#
# Disc length: 4447 seconds
#
# Revision: 1
# Processed by: cddbd v1.5.2PL0 Copyright (c) Steve Scherf et al.
# Submitted via: CDex 1.51
#
DISCID=c4115d0e
DTITLE=Machine Head - The More Things Change...
DYEAR=1997
DGENRE=Heavy Metal
TTITLE0=Ten Ton Hammer
TTITLE1=Take My Scars
TTITLE2=Struck a Nerve
TTITLE3=Down to None
TTITLE4=The Frontlines
TTITLE5=Spine
TTITLE6=Bay of Pigs
TTITLE7=Violate
TTITLE8=Blistering
TTITLE9=Blood of the Zodiac
TTITLE10=The Possibillity Of Life's Destruction [Bonus Track]
TTITLE11=My Misery [Bonus Track]
TTITLE12=Colors [Bonus Track]
TTITLE13=Data Track
EXTD=YEAR: 1997
EXTT0=
EXTT1=
EXTT2=
EXTT3=
EXTT4=
EXTT5=
EXTT6=
EXTT7=
EXTT8=
EXTT9=
EXTT10=
EXTT11=
EXTT12=
EXTT13=
PLAYORDER=
